<svg width="20" height="20" viewBox="0 0 20 20" fill="none" xmlns="http://www.w3.org/2000/svg"><path d="M7.995 3.283c.075-.451.467-.783.925-.783h2.16c.46 0 .85.332.926.783l.177 1.068c.053.311.261.572.538.725.062.033.122.069.183.106.271.163.6.214.896.103l1.014-.38c.208-.078.437-.08.646-.005.21.075.385.221.496.413l1.08 1.873c.11.192.15.417.11.636-.04.218-.155.415-.327.556l-.836.69c-.244.2-.365.51-.358.826v.213c-.007.315.114.625.358.825l.837.69c.353.291.445.796.217 1.191l-1.082 1.873c-.11.192-.286.339-.495.414-.21.075-.438.073-.646-.005l-1.014-.38c-.296-.11-.625-.06-.897.103-.06.037-.121.073-.183.107-.276.152-.484.412-.537.724l-.177 1.068c-.075.452-.467.783-.925.783H8.919c-.458 0-.849-.332-.925-.783l-.177-1.068c-.052-.311-.26-.571-.537-.725-.062-.034-.123-.07-.183-.106-.271-.163-.6-.214-.897-.103l-1.014.38c-.208.078-.436.08-.645.005-.21-.075-.385-.221-.496-.413l-1.08-1.873c-.112-.192-.15-.417-.111-.636.04-.218.155-.415.327-.556l.837-.69c.243-.2.364-.51.358-.825v-.213c.006-.316-.115-.626-.358-.826l-.837-.69c-.171-.14-.287-.338-.327-.556-.04-.218 0-.443.11-.635l1.081-1.873c.111-.192.287-.339.496-.414.209-.075.438-.073.646.005l1.013.38c.297.11.626.06.897-.103.06-.037.121-.072.183-.107.277-.152.485-.413.537-.724l.178-1.068z" stroke="#7C8B9A" stroke-width="1.5" stroke-linecap="round" stroke-linejoin="round"/><path d="M12.5 10c0 .663-.263 1.299-.732 1.768-.47.469-1.105.732-1.768.732s-1.299-.263-1.768-.732C7.763 11.298 7.5 10.663 7.5 10s.263-1.299.732-1.768C8.702 7.763 9.337 7.5 10 7.5s1.299.263 1.768.732c.469.47.732 1.105.732 1.768z" stroke="#7C8B9A" stroke-width="1.5" stroke-linecap="round" stroke-linejoin="round"/></svg>