<svg width="16" height="18" viewBox="0 0 16 18" fill="none" xmlns="http://www.w3.org/2000/svg">
<path d="M12.2691 8.34262C12.1912 8.30528 12.1125 8.26955 12.033 8.23547C11.8941 5.67544 10.4952 4.20984 8.14644 4.19484H8.11456C6.70963 4.19484 5.54122 4.79447 4.82206 5.88572L6.11384 6.77184C6.65103 5.95669 7.49422 5.78297 8.11522 5.78297H8.13669C8.91003 5.78794 9.49362 6.01284 9.87134 6.45131C10.1462 6.77053 10.3301 7.21172 10.4211 7.7685C9.73541 7.65197 8.99384 7.61606 8.20109 7.66162C5.96797 7.79016 4.53228 9.09262 4.62875 10.9024C4.67769 11.8204 5.135 12.6101 5.91641 13.126C6.57706 13.5622 7.42803 13.7754 8.31238 13.7272C9.48031 13.6631 10.3965 13.2175 11.0357 12.4028C11.5212 11.784 11.8282 10.9822 11.9637 9.97181C12.5203 10.3077 12.9328 10.7498 13.1607 11.2811C13.548 12.1844 13.5706 13.6687 12.3595 14.8789C11.2983 15.939 10.0227 16.3976 8.09497 16.4118C5.95662 16.3959 4.33934 15.7102 3.28794 14.3735C2.30338 13.1218 1.7945 11.3139 1.77547 9C1.7945 6.68606 2.30328 4.87819 3.28794 3.62653C4.33944 2.28984 5.95662 1.60406 8.09497 1.58812C10.2489 1.60406 11.8943 2.29312 12.986 3.63628C13.5213 4.29497 13.9249 5.12316 14.191 6.08897L15.7048 5.68509C15.3823 4.49634 14.8748 3.47203 14.1842 2.62247C12.7846 0.900656 10.7377 0.0182812 8.10031 0H8.08972C5.45769 0.0181875 3.43362 0.903938 2.07387 2.6325C0.863937 4.17047 0.23975 6.31078 0.218844 8.99362L0.21875 9V9.00628C0.23975 11.6891 0.863937 13.8294 2.07387 15.3676C3.43362 17.0961 5.45769 17.9818 8.08972 18H8.10031C10.4403 17.9838 12.0897 17.3711 13.4486 16.0135C15.2263 14.2374 15.1728 12.0112 14.5869 10.6445C14.1665 9.66441 13.365 8.86837 12.2691 8.34262ZM8.22875 12.1413C7.25 12.1964 6.23319 11.7571 6.18313 10.8161C6.14591 10.1184 6.67963 9.33994 8.28884 9.24722C8.47316 9.23653 8.654 9.23137 8.83166 9.23137C9.41619 9.23137 9.96303 9.28819 10.4602 9.39684C10.2747 11.7127 9.18706 12.0887 8.22875 12.1413Z" fill="black"/>
</svg>
